<svg width="24" height="24" viewBox="0 0 24 24" fill="none" xmlns="http://www.w3.org/2000/svg">
<mask id="mask0_3946_54" style="mask-type:luminance" maskUnits="userSpaceOnUse" x="0" y="0" width="24" height="24">
<path d="M24 0H0V24H24V0Z" fill="white"/>
</mask>
<g mask="url(#mask0_3946_54)">
<path fill-rule="evenodd" clip-rule="evenodd" d="M18.4533 4.31137C14.7912 1.14172 9.58911 1.0223 5.79086 3.90742C2.09092 6.71805 0.79818 11.6064 2.75138 15.9111L1.11572 16.6805C-1.15619 11.9228 0.131122 6.29055 4.15578 2.87327C8.59233 -0.893802 14.8918 -0.970932 19.404 2.72369C23.092 5.74376 24.6782 10.5734 23.2762 15.181L20.9419 16.1924C22.8781 12.0128 21.9392 7.32851 18.4533 4.31137ZM12.8481 14.285L10.9449 14.2973L10.9514 8.34012L7.36914 8.34393L7.3756 6.45095L10.9479 6.44963L10.9448 3.22979L12.85 3.22335L12.8455 6.44861L16.4013 6.45549L16.3969 8.33998L12.8434 8.33749L12.8481 14.285ZM19.0349 19.2721C15.8481 19.0549 12.4368 16.1206 9.26262 15.7641L6.02607 15.3721C9.22197 14.6585 12.5815 15.0005 15.5656 16.4685C18.3849 17.8553 21.593 17.5657 23.9997 15.3556C23.5633 17.7987 21.5221 19.3521 19.0349 19.2721ZM21.3059 19.865C19.2562 23.3736 13.5791 21.4194 10.5863 19.2702C9.39101 18.4116 8.29299 17.5158 6.95814 16.8992C6.34302 16.615 5.72996 16.4235 5.01272 16.1349C6.49533 15.8486 7.82755 16.2314 9.17164 16.6997C10.6008 17.1978 11.7749 18.0471 13.0865 18.805C15.0613 19.9462 18.7431 20.5328 21.3059 19.865ZM16.6386 23.2767C14.1416 24.4232 10.8604 24.3473 8.99409 22.0148C7.94127 20.6992 6.93158 19.426 5.8048 18.1775C5.09709 17.3933 4.19452 17.0141 3.2268 16.6346C7.342 16.433 9.07054 19.7422 12.1027 21.6875C13.4811 22.4907 14.8264 23.0148 16.6386 23.2767ZM5.56738 19.1702C7.04163 20.8434 7.73584 23.1921 9.94993 23.8418C6.03253 23.4604 2.84235 21.0169 1.28652 17.4268C2.45835 16.7436 4.73759 18.0071 5.56738 19.1702Z" fill="white"/>
</g>
</svg>
